<svg width="512" height="512" viewBox="0 0 512 512" fill="none" xmlns="http://www.w3.org/2000/svg">
  <path d="M17.0001 114.296H67.6946V136.137C82.5397 119.044 99.9116 110.498 119.81 110.498C144.763 110.498 161.345 121.26 169.557 142.784C178.085 163.992 182.349 187.574 182.349 213.53V280.003C182.349 313.556 177.138 340.778 166.715 361.669C156.607 382.244 139.077 392.532 114.125 392.532C98.0165 392.532 82.5397 384.46 67.6946 368.317V478.946H17.0001V114.296ZM104.176 352.648C115.862 352.648 123.285 346.792 126.443 335.08C129.918 323.052 131.655 304.693 131.655 280.003V213.53C131.655 193.272 129.76 177.762 125.97 166.999C122.179 155.921 114.283 150.381 102.281 150.381C90.5939 150.381 79.0653 155.129 67.6946 164.625V340.303C78.7494 348.533 90.9098 352.648 104.176 352.648Z" fill="#1C1C1C"/>
  <path d="M301.405 392.532C261.923 392.532 242.183 370.691 242.183 327.009V148.007H213.282V114.296H242.183V34.054H292.877V114.296H336.939V148.007H292.877V323.685C292.877 334.764 294.614 342.519 298.089 346.95C301.563 351.382 308.196 353.598 317.987 353.598C324.304 353.598 330.464 353.123 336.465 352.173V389.683C323.831 391.582 312.144 392.532 301.405 392.532Z" fill="#1C1C1C"/>
  <path d="M375.607 114.296H426.302V153.23C435.777 137.72 445.411 126.799 455.202 120.468C465.31 114.138 475.891 110.972 486.946 110.972C489.788 110.972 492.473 111.131 495 111.447V167.474C484.893 163.676 475.575 161.776 467.047 161.776C458.835 161.776 451.412 163.834 444.779 167.949C438.462 171.747 432.303 178.553 426.302 188.366V388.733H375.607V114.296Z" fill="#1C1C1C"/>
  <style>
    svg {
      color-scheme:light dark;
    }
    @media (prefers-color-scheme:dark) {
      path {
        fill: #f2f2f2 !important;
      }
    }
  </style>
</svg>
